<?xml version="1.0" encoding="UTF-8" ?>
<!DOCTYPE svg>
<svg height="1500" width="3500">
<line x1="24.266671" y1="269.750000" x2="87.843889" y2="467.321111" stroke="red" stroke-width="2" />
<line x1="87.843889" y1="467.321111" x2="101.966944" y2="484.701389" stroke="red" stroke-width="2" />
<line x1="101.966944" y1="484.701389" x2="103.783329" y2="487.066671" stroke="red" stroke-width="2" />
<line x1="103.783329" y1="487.066671" x2="168.046667" y2="475.171667" stroke="red" stroke-width="2" />
<line x1="168.046667" y1="475.171667" x2="240.716671" y2="497.466671" stroke="red" stroke-width="2" />
<line x1="240.716671" y1="497.466671" x2="344.586667" y2="527.489444" stroke="red" stroke-width="2" />
<line x1="344.586667" y1="527.489444" x2="385.280277" y2="523.080277" stroke="red" stroke-width="2" />
<line x1="385.280277" y1="523.080277" x2="485.550000" y2="365.950000" stroke="red" stroke-width="2" />
<line x1="485.550000" y1="365.950000" x2="592.583329" y2="342.333329" stroke="red" stroke-width="2" />
<line x1="592.583329" y1="342.333329" x2="668.416671" y2="318.500000" stroke="red" stroke-width="2" />
<line x1="668.416671" y1="318.500000" x2="716.300000" y2="669.933333" stroke="red" stroke-width="2" />
<line x1="716.300000" y1="669.933333" x2="684.645000" y2="668.990833" stroke="red" stroke-width="2" />
<line x1="684.645000" y1="668.990833" x2="755.083333" y2="773.500000" stroke="red" stroke-width="2" />
<line x1="755.083333" y1="773.500000" x2="844.671386" y2="950.473329" stroke="red" stroke-width="2" />
<line x1="844.671386" y1="950.473329" x2="994.716671" y2="928.850000" stroke="red" stroke-width="2" />
<line x1="994.716671" y1="928.850000" x2="1086.583329" y2="953.116671" stroke="red" stroke-width="2" />
<line x1="1086.583329" y1="953.116671" x2="1171.300000" y2="1014.650000" stroke="red" stroke-width="2" />
<line x1="1171.300000" y1="1014.650000" x2="1452.955833" y2="799.630000" stroke="red" stroke-width="2" />
<line x1="1452.955833" y1="799.630000" x2="1521.000000" y2="745.550000" stroke="red" stroke-width="2" />
<line x1="1521.000000" y1="745.550000" x2="1605.178611" y2="749.186389" stroke="red" stroke-width="2" />
<line x1="1605.178611" y1="749.186389" x2="1622.183333" y2="837.850000" stroke="red" stroke-width="2" />
<line x1="1622.183333" y1="837.850000" x2="1669.145829" y2="826.110272" stroke="red" stroke-width="2" />
<line x1="1669.145829" y1="826.110272" x2="1675.653057" y2="813.958886" stroke="red" stroke-width="2" />
<line x1="1675.653057" y1="813.958886" x2="1698.157396" y2="827.644415" stroke="red" stroke-width="2" />
<line x1="1698.157396" y1="827.644415" x2="1716.174252" y2="847.893501" stroke="red" stroke-width="2" />
<line x1="1716.174252" y1="847.893501" x2="1796.083562" y2="755.996267" stroke="red" stroke-width="2" />
<line x1="1796.083562" y1="755.996267" x2="1774.716667" y2="859.733333" stroke="red" stroke-width="2" />
<line x1="1774.716667" y1="859.733333" x2="1751.100000" y2="857.346389" stroke="red" stroke-width="2" />
<line x1="1751.100000" y1="857.346389" x2="1823.900000" y2="965.900000" stroke="red" stroke-width="2" />
<line x1="1823.900000" y1="965.900000" x2="1823.701389" y2="965.369167" stroke="red" stroke-width="2" />
<line x1="1823.701389" y1="965.369167" x2="1982.066671" y2="1061.666671" stroke="red" stroke-width="2" />
<line x1="1982.066671" y1="1061.666671" x2="2028.581389" y2="1141.631111" stroke="red" stroke-width="2" />
<line x1="2028.581389" y1="1141.631111" x2="2048.659167" y2="1247.548611" stroke="red" stroke-width="2" />
<line x1="2048.659167" y1="1247.548611" x2="1992.683333" y2="1110.416667" stroke="red" stroke-width="2" />
<line x1="1992.683333" y1="1110.416667" x2="2135.683333" y2="998.400000" stroke="red" stroke-width="2" />
<line x1="2135.683333" y1="998.400000" x2="2103.616667" y2="926.683333" stroke="red" stroke-width="2" />
<line x1="2103.616667" y1="926.683333" x2="2142.739443" y2="631.453329" stroke="red" stroke-width="2" />
<line x1="2142.739443" y1="631.453329" x2="2232.297860" y2="589.502368" stroke="red" stroke-width="2" />
<line x1="2232.297860" y1="589.502368" x2="2343.961321" y2="581.643764" stroke="red" stroke-width="2" />
<line x1="2343.961321" y1="581.643764" x2="2308.004400" y2="525.153200" stroke="red" stroke-width="2" />
<line x1="2308.004400" y1="525.153200" x2="2399.880600" y2="438.139000" stroke="red" stroke-width="2" />
<line x1="2399.880600" y1="438.139000" x2="2524.383329" y2="461.283329" stroke="red" stroke-width="2" />
<line x1="2524.383329" y1="461.283329" x2="2555.520344" y2="467.896000" stroke="red" stroke-width="2" />
<line x1="2555.520344" y1="467.896000" x2="2574.882700" y2="473.190900" stroke="red" stroke-width="2" />
<line x1="2574.882700" y1="473.190900" x2="2589.448017" y2="491.898329" stroke="red" stroke-width="2" />
<line x1="2589.448017" y1="491.898329" x2="2591.466943" y2="499.853614" stroke="red" stroke-width="2" />
<line x1="2591.466943" y1="499.853614" x2="2598.252228" y2="498.770272" stroke="red" stroke-width="2" />
<line x1="2598.252228" y1="498.770272" x2="2611.050000" y2="508.300000" stroke="red" stroke-width="2" />
<line x1="2611.050000" y1="508.300000" x2="2631.633329" y2="537.333329" stroke="red" stroke-width="2" />
<line x1="2631.633329" y1="537.333329" x2="2628.816671" y2="537.333329" stroke="red" stroke-width="2" />
<line x1="2628.816671" y1="537.333329" x2="2639.216671" y2="556.616671" stroke="red" stroke-width="2" />
<line x1="2639.216671" y1="556.616671" x2="2676.916671" y2="560.950000" stroke="red" stroke-width="2" />
<line x1="2676.916671" y1="560.950000" x2="2669.550000" y2="565.933329" stroke="red" stroke-width="2" />
<line x1="2669.550000" y1="565.933329" x2="2689.050000" y2="579.150000" stroke="red" stroke-width="2" />
<line x1="2689.050000" y1="579.150000" x2="2704.000000" y2="580.666671" stroke="red" stroke-width="2" />
<line x1="2704.000000" y1="580.666671" x2="2731.516671" y2="577.200000" stroke="red" stroke-width="2" />
<line x1="2731.516671" y1="577.200000" x2="2773.033614" y2="616.340829" stroke="red" stroke-width="2" />
<line x1="2773.033614" y1="616.340829" x2="2773.806386" y2="616.593614" stroke="red" stroke-width="2" />
<line x1="2773.806386" y1="616.593614" x2="2789.150000" y2="613.600000" stroke="red" stroke-width="2" />
<line x1="2789.150000" y1="613.600000" x2="2800.311944" y2="601.600277" stroke="red" stroke-width="2" />
<line x1="2800.311944" y1="601.600277" x2="2874.083333" y2="624.000000" stroke="red" stroke-width="2" />
<line x1="2874.083333" y1="624.000000" x2="2875.166667" y2="691.816667" stroke="red" stroke-width="2" />
<line x1="2875.166667" y1="691.816667" x2="3001.050000" y2="636.566671" stroke="red" stroke-width="2" />
<line x1="3001.050000" y1="636.566671" x2="3012.316671" y2="564.416671" stroke="red" stroke-width="2" />
<line x1="3012.316671" y1="564.416671" x2="3097.250000" y2="609.483329" stroke="red" stroke-width="2" />
<line x1="3097.250000" y1="609.483329" x2="3108.733329" y2="617.066671" stroke="red" stroke-width="2" />
<line x1="3108.733329" y1="617.066671" x2="3189.550000" y2="615.766667" stroke="red" stroke-width="2" />
<line x1="3189.550000" y1="615.766667" x2="3193.858056" y2="596.136667" stroke="red" stroke-width="2" />
<line x1="3193.858056" y1="596.136667" x2="3350.628086" y2="462.347028" stroke="red" stroke-width="2" />
<line x1="3350.628086" y1="462.347028" x2="3382.378935" y2="459.013048" stroke="red" stroke-width="2" />
<line x1="3382.378935" y1="459.013048" x2="3404.787607" y2="452.657426" stroke="red" stroke-width="2" />
<line x1="3404.787607" y1="452.657426" x2="3441.323886" y2="448.232772" stroke="red" stroke-width="2" />
<line x1="3441.323886" y1="448.232772" x2="3441.768057" y2="446.095000" stroke="red" stroke-width="2" />
<line x1="3441.768057" y1="446.095000" x2="3275.717900" y2="421.219500" stroke="red" stroke-width="2" />
<line x1="3275.717900" y1="421.219500" x2="3204.825000" y2="584.490833" stroke="red" stroke-width="2" />
<line x1="3204.825000" y1="584.490833" x2="3188.918056" y2="615.968889" stroke="red" stroke-width="2" />
<line x1="3188.918056" y1="615.968889" x2="3137.734067" y2="604.124846" stroke="red" stroke-width="2" />
<circle cx="3441.768057" cy="446.095000" r="4" stroke="black" stroke-width="2" fill="blue" />
<circle cx="3203.196386" cy="506.407772" r="4" stroke="black" stroke-width="2" fill="blue" />
<circle cx="2571.735829" cy="663.325000" r="4" stroke="black" stroke-width="2" fill="blue" />
<circle cx="2497.068600" cy="586.227200" r="4" stroke="black" stroke-width="2" fill="blue" />
<circle cx="2628.816671" cy="537.333329" r="4" stroke="black" stroke-width="2" fill="blue" />
<circle cx="2628.600000" cy="538.200000" r="4" stroke="black" stroke-width="2" fill="blue" />
<circle cx="3197.768600" cy="720.145400" r="4" stroke="black" stroke-width="2" fill="blue" />
<circle cx="2114.002228" cy="185.221114" r="4" stroke="black" stroke-width="2" fill="blue" />
<circle cx="3275.717900" cy="421.219500" r="4" stroke="black" stroke-width="2" fill="blue" />
<circle cx="1018.344561" cy="1215.152809" r="4" stroke="black" stroke-width="2" fill="blue" />
<circle cx="2001.541386" cy="376.758057" r="4" stroke="black" stroke-width="2" fill="blue" />
<circle cx="1669.145829" cy="826.110272" r="4" stroke="black" stroke-width="2" fill="blue" />
<circle cx="336.198057" cy="657.355829" r="4" stroke="black" stroke-width="2" fill="blue" />
<circle cx="3013.782772" cy="990.267772" r="4" stroke="black" stroke-width="2" fill="blue" />
<circle cx="662.916944" cy="380.715833" r="4" stroke="black" stroke-width="2" fill="blue" />
<circle cx="1823.900000" cy="965.900000" r="4" stroke="black" stroke-width="2" fill="blue" />
<circle cx="2031.250000" cy="519.350000" r="4" stroke="black" stroke-width="2" fill="blue" />
<circle cx="623.350000" cy="1066.650000" r="4" stroke="black" stroke-width="2" fill="blue" />
<circle cx="3138.048329" cy="390.924443" r="4" stroke="black" stroke-width="2" fill="blue" />
<circle cx="1623.782043" cy="240.316375" r="4" stroke="black" stroke-width="2" fill="blue" />
<circle cx="662.183249" cy="849.560686" r="4" stroke="black" stroke-width="2" fill="blue" />
<circle cx="2800.311944" cy="601.600277" r="4" stroke="black" stroke-width="2" fill="blue" />
<circle cx="2591.466943" cy="499.853614" r="4" stroke="black" stroke-width="2" fill="blue" />
<circle cx="1062.966671" cy="1207.700000" r="4" stroke="black" stroke-width="2" fill="blue" />
<circle cx="2202.120556" cy="476.598056" r="4" stroke="black" stroke-width="2" fill="blue" />
<circle cx="2931.518772" cy="731.198273" r="4" stroke="black" stroke-width="2" fill="blue" />
<circle cx="2633.583329" cy="741.216671" r="4" stroke="black" stroke-width="2" fill="blue" />
<circle cx="706.333329" cy="1344.850000" r="4" stroke="black" stroke-width="2" fill="blue" />
<circle cx="2773.806386" cy="616.593614" r="4" stroke="black" stroke-width="2" fill="blue" />
<circle cx="592.583329" cy="342.333329" r="4" stroke="black" stroke-width="2" fill="blue" />
<circle cx="2875.166667" cy="691.816667" r="4" stroke="black" stroke-width="2" fill="blue" />
<circle cx="3590.671175" cy="1350.199253" r="4" stroke="black" stroke-width="2" fill="blue" />
<circle cx="2668.683329" cy="739.916671" r="4" stroke="black" stroke-width="2" fill="blue" />
<circle cx="3110.554265" cy="512.458375" r="4" stroke="black" stroke-width="2" fill="blue" />
<circle cx="2018.434171" cy="131.372228" r="4" stroke="black" stroke-width="2" fill="blue" />
<circle cx="3010.186114" cy="525.683886" r="4" stroke="black" stroke-width="2" fill="blue" />
<circle cx="3041.071943" cy="464.641671" r="4" stroke="black" stroke-width="2" fill="blue" />
<circle cx="2977.866671" cy="511.333329" r="4" stroke="black" stroke-width="2" fill="blue" />
<circle cx="87.843889" cy="467.321111" r="4" stroke="black" stroke-width="2" fill="blue" />
<circle cx="2013.949167" cy="504.425277" r="4" stroke="black" stroke-width="2" fill="blue" />
<circle cx="3148.296671" cy="401.151114" r="4" stroke="black" stroke-width="2" fill="blue" />
<circle cx="3509.524525" cy="1401.581194" r="4" stroke="black" stroke-width="2" fill="blue" />
<circle cx="2569.016671" cy="610.566671" r="4" stroke="black" stroke-width="2" fill="blue" />
<circle cx="1572.835472" cy="840.974459" r="4" stroke="black" stroke-width="2" fill="blue" />
<circle cx="1735.679491" cy="754.073398" r="4" stroke="black" stroke-width="2" fill="blue" />
<circle cx="1525.950959" cy="473.293873" r="4" stroke="black" stroke-width="2" fill="blue" />
<circle cx="2645.167772" cy="684.121386" r="4" stroke="black" stroke-width="2" fill="blue" />
<circle cx="1675.653057" cy="813.958886" r="4" stroke="black" stroke-width="2" fill="blue" />
<circle cx="2975.125833" cy="893.190277" r="4" stroke="black" stroke-width="2" fill="blue" />
<circle cx="2051.923965" cy="391.148524" r="4" stroke="black" stroke-width="2" fill="blue" />
<circle cx="3229.626114" cy="366.701114" r="4" stroke="black" stroke-width="2" fill="blue" />
<circle cx="2232.297860" cy="589.502368" r="4" stroke="black" stroke-width="2" fill="blue" />
<circle cx="3011.666671" cy="770.250000" r="4" stroke="black" stroke-width="2" fill="blue" />
<circle cx="1864.501834" cy="1351.035907" r="4" stroke="black" stroke-width="2" fill="blue" />
<circle cx="1799.200000" cy="227.283329" r="4" stroke="black" stroke-width="2" fill="blue" />
<circle cx="668.416671" cy="318.500000" r="4" stroke="black" stroke-width="2" fill="blue" />
<circle cx="3271.450000" cy="315.250000" r="4" stroke="black" stroke-width="2" fill="blue" />
<circle cx="3097.250000" cy="609.483329" r="4" stroke="black" stroke-width="2" fill="blue" />
<circle cx="2028.379574" cy="1298.152648" r="4" stroke="black" stroke-width="2" fill="blue" />
<circle cx="1577.001140" cy="384.688642" r="4" stroke="black" stroke-width="2" fill="blue" />
<circle cx="3169.111114" cy="493.198329" r="4" stroke="black" stroke-width="2" fill="blue" />
<circle cx="2524.383329" cy="461.283329" r="4" stroke="black" stroke-width="2" fill="blue" />
<circle cx="2585.266671" cy="669.066671" r="4" stroke="black" stroke-width="2" fill="blue" />
<circle cx="2572.700000" cy="637.433329" r="4" stroke="black" stroke-width="2" fill="blue" />
<circle cx="485.550000" cy="365.950000" r="4" stroke="black" stroke-width="2" fill="blue" />
<circle cx="2669.550000" cy="565.933329" r="4" stroke="black" stroke-width="2" fill="blue" />
<circle cx="2046.683889" cy="706.730556" r="4" stroke="black" stroke-width="2" fill="blue" />
<circle cx="1797.031262" cy="1024.878452" r="4" stroke="black" stroke-width="2" fill="blue" />
<circle cx="2128.739938" cy="792.683775" r="4" stroke="black" stroke-width="2" fill="blue" />
<circle cx="2103.616667" cy="926.683333" r="4" stroke="black" stroke-width="2" fill="blue" />
<circle cx="3087.120829" cy="419.549728" r="4" stroke="black" stroke-width="2" fill="blue" />
<circle cx="2610.616671" cy="560.083329" r="4" stroke="black" stroke-width="2" fill="blue" />
<circle cx="1124.283329" cy="1078.783329" r="4" stroke="black" stroke-width="2" fill="blue" />
<circle cx="1398.305277" cy="719.279167" r="4" stroke="black" stroke-width="2" fill="blue" />
<circle cx="2135.683333" cy="998.400000" r="4" stroke="black" stroke-width="2" fill="blue" />
<circle cx="1787.283329" cy="365.300000" r="4" stroke="black" stroke-width="2" fill="blue" />
<circle cx="2214.766667" cy="883.133333" r="4" stroke="black" stroke-width="2" fill="blue" />
<circle cx="2134.849171" cy="630.279728" r="4" stroke="black" stroke-width="2" fill="blue" />
<circle cx="3254.196114" cy="339.560000" r="4" stroke="black" stroke-width="2" fill="blue" />
<circle cx="3204.825000" cy="584.490833" r="4" stroke="black" stroke-width="2" fill="blue" />
<circle cx="2021.716671" cy="254.366671" r="4" stroke="black" stroke-width="2" fill="blue" />
<circle cx="2575.083329" cy="501.583329" r="4" stroke="black" stroke-width="2" fill="blue" />
<circle cx="1977.798888" cy="410.634562" r="4" stroke="black" stroke-width="2" fill="blue" />
<circle cx="2676.916671" cy="560.950000" r="4" stroke="black" stroke-width="2" fill="blue" />
<circle cx="2030.758889" cy="519.888056" r="4" stroke="black" stroke-width="2" fill="blue" />
<circle cx="1086.583329" cy="953.116671" r="4" stroke="black" stroke-width="2" fill="blue" />
<circle cx="630.207500" cy="865.316114" r="4" stroke="black" stroke-width="2" fill="blue" />
<circle cx="3090.760829" cy="1004.239171" r="4" stroke="black" stroke-width="2" fill="blue" />
<circle cx="1053.866671" cy="1168.916671" r="4" stroke="black" stroke-width="2" fill="blue" />
<circle cx="2399.880600" cy="438.139000" r="4" stroke="black" stroke-width="2" fill="blue" />
<circle cx="2653.300000" cy="635.050000" r="4" stroke="black" stroke-width="2" fill="blue" />
<circle cx="2028.581389" cy="1141.631111" r="4" stroke="black" stroke-width="2" fill="blue" />
<circle cx="1002.083329" cy="1115.183329" r="4" stroke="black" stroke-width="2" fill="blue" />
<circle cx="716.300000" cy="669.933333" r="4" stroke="black" stroke-width="2" fill="blue" />
<circle cx="3404.787607" cy="452.657426" r="4" stroke="black" stroke-width="2" fill="blue" />
<circle cx="2108.061944" cy="439.363889" r="4" stroke="black" stroke-width="2" fill="blue" />
<circle cx="1655.333329" cy="274.733329" r="4" stroke="black" stroke-width="2" fill="blue" />
<circle cx="3145.963886" cy="433.311671" r="4" stroke="black" stroke-width="2" fill="blue" />
<circle cx="3116.118057" cy="424.677500" r="4" stroke="black" stroke-width="2" fill="blue" />
<circle cx="3205.828886" cy="404.141114" r="4" stroke="black" stroke-width="2" fill="blue" />
<circle cx="385.280277" cy="523.080277" r="4" stroke="black" stroke-width="2" fill="blue" />
<circle cx="1989.647595" cy="1250.667223" r="4" stroke="black" stroke-width="2" fill="blue" />
<circle cx="642.673317" cy="828.726080" r="4" stroke="black" stroke-width="2" fill="blue" />
<circle cx="1664.657223" cy="432.080277" r="4" stroke="black" stroke-width="2" fill="blue" />
<circle cx="2525.250000" cy="372.883333" r="4" stroke="black" stroke-width="2" fill="blue" />
<circle cx="2047.944167" cy="707.355277" r="4" stroke="black" stroke-width="2" fill="blue" />
<circle cx="1622.183333" cy="837.850000" r="4" stroke="black" stroke-width="2" fill="blue" />
<circle cx="586.300000" cy="938.166667" r="4" stroke="black" stroke-width="2" fill="blue" />
<circle cx="693.672777" cy="771.788333" r="4" stroke="black" stroke-width="2" fill="blue" />
<circle cx="1536.024516" cy="467.820808" r="4" stroke="black" stroke-width="2" fill="blue" />
<circle cx="3270.283614" cy="339.939171" r="4" stroke="black" stroke-width="2" fill="blue" />
<circle cx="3187.098447" cy="516.182550" r="4" stroke="black" stroke-width="2" fill="blue" />
<circle cx="1964.300000" cy="332.366671" r="4" stroke="black" stroke-width="2" fill="blue" />
<circle cx="3132.133329" cy="538.850000" r="4" stroke="black" stroke-width="2" fill="blue" />
<circle cx="1446.741111" cy="786.380833" r="4" stroke="black" stroke-width="2" fill="blue" />
<circle cx="3614.315796" cy="1267.123130" r="4" stroke="black" stroke-width="2" fill="blue" />
<circle cx="24.266671" cy="269.750000" r="4" stroke="black" stroke-width="2" fill="blue" />
<circle cx="2610.833329" cy="614.683329" r="4" stroke="black" stroke-width="2" fill="blue" />
<circle cx="755.083333" cy="773.500000" r="4" stroke="black" stroke-width="2" fill="blue" />
<circle cx="337.317500" cy="655.185557" r="4" stroke="black" stroke-width="2" fill="blue" />
<circle cx="2907.666671" cy="863.416671" r="4" stroke="black" stroke-width="2" fill="blue" />
<circle cx="2574.882700" cy="473.190900" r="4" stroke="black" stroke-width="2" fill="blue" />
<circle cx="1983.366667" cy="209.300000" r="4" stroke="black" stroke-width="2" fill="blue" />
<circle cx="1755.000000" cy="213.850000" r="4" stroke="black" stroke-width="2" fill="blue" />
<circle cx="984.750000" cy="1240.416671" r="4" stroke="black" stroke-width="2" fill="blue" />
<circle cx="1873.083329" cy="292.500000" r="4" stroke="black" stroke-width="2" fill="blue" />
<circle cx="3024.041943" cy="999.750557" r="4" stroke="black" stroke-width="2" fill="blue" />
<circle cx="1987.160396" cy="1251.481556" r="4" stroke="black" stroke-width="2" fill="blue" />
<circle cx="1898.000000" cy="230.750000" r="4" stroke="black" stroke-width="2" fill="blue" />
<circle cx="3189.835272" cy="440.718057" r="4" stroke="black" stroke-width="2" fill="blue" />
<circle cx="281.666671" cy="641.333329" r="4" stroke="black" stroke-width="2" fill="blue" />
<circle cx="1991.982772" cy="1244.190272" r="4" stroke="black" stroke-width="2" fill="blue" />
<circle cx="2731.516671" cy="577.200000" r="4" stroke="black" stroke-width="2" fill="blue" />
<circle cx="2631.200000" cy="607.533329" r="4" stroke="black" stroke-width="2" fill="blue" />
<circle cx="844.671386" cy="950.473329" r="4" stroke="black" stroke-width="2" fill="blue" />
<circle cx="3108.563614" cy="492.754171" r="4" stroke="black" stroke-width="2" fill="blue" />
<circle cx="1721.697640" cy="773.210893" r="4" stroke="black" stroke-width="2" fill="blue" />
<circle cx="2096.900000" cy="474.500000" r="4" stroke="black" stroke-width="2" fill="blue" />
<circle cx="2988.916667" cy="759.850000" r="4" stroke="black" stroke-width="2" fill="blue" />
<circle cx="1653.263300" cy="371.821177" r="4" stroke="black" stroke-width="2" fill="blue" />
<circle cx="1837.766671" cy="283.400000" r="4" stroke="black" stroke-width="2" fill="blue" />
<circle cx="2296.808904" cy="485.456166" r="4" stroke="black" stroke-width="2" fill="blue" />
<circle cx="2611.050000" cy="508.300000" r="4" stroke="black" stroke-width="2" fill="blue" />
<circle cx="3382.378935" cy="459.013048" r="4" stroke="black" stroke-width="2" fill="blue" />
<circle cx="3015.864800" cy="991.053700" r="4" stroke="black" stroke-width="2" fill="blue" />
<circle cx="3188.918056" cy="615.968889" r="4" stroke="black" stroke-width="2" fill="blue" />
<circle cx="3189.550000" cy="615.766667" r="4" stroke="black" stroke-width="2" fill="blue" />
<circle cx="2763.805967" cy="340.587455" r="4" stroke="black" stroke-width="2" fill="blue" />
<circle cx="2573.566671" cy="660.400000" r="4" stroke="black" stroke-width="2" fill="blue" />
<circle cx="1171.300000" cy="1014.650000" r="4" stroke="black" stroke-width="2" fill="blue" />
<circle cx="1603.983333" cy="823.116667" r="4" stroke="black" stroke-width="2" fill="blue" />
<circle cx="2947.100000" cy="868.833329" r="4" stroke="black" stroke-width="2" fill="blue" />
<circle cx="647.865833" cy="390.621111" r="4" stroke="black" stroke-width="2" fill="blue" />
<circle cx="2288.133900" cy="444.138500" r="4" stroke="black" stroke-width="2" fill="blue" />
<circle cx="3131.198161" cy="1325.379120" r="4" stroke="black" stroke-width="2" fill="blue" />
<circle cx="790.646324" cy="1318.375448" r="4" stroke="black" stroke-width="2" fill="blue" />
<circle cx="2554.178614" cy="517.457772" r="4" stroke="black" stroke-width="2" fill="blue" />
<circle cx="3001.050000" cy="636.566671" r="4" stroke="black" stroke-width="2" fill="blue" />
<circle cx="2639.216671" cy="556.616671" r="4" stroke="black" stroke-width="2" fill="blue" />
<circle cx="168.046667" cy="475.171667" r="4" stroke="black" stroke-width="2" fill="blue" />
<circle cx="2226.794700" cy="414.960000" r="4" stroke="black" stroke-width="2" fill="blue" />
<circle cx="2703.149800" cy="194.460500" r="4" stroke="black" stroke-width="2" fill="blue" />
<circle cx="2974.298886" cy="441.266943" r="4" stroke="black" stroke-width="2" fill="blue" />
<circle cx="2002.794443" cy="387.508329" r="4" stroke="black" stroke-width="2" fill="blue" />
<circle cx="2576.600000" cy="620.100000" r="4" stroke="black" stroke-width="2" fill="blue" />
<circle cx="994.716671" cy="928.850000" r="4" stroke="black" stroke-width="2" fill="blue" />
<circle cx="240.716671" cy="497.466671" r="4" stroke="black" stroke-width="2" fill="blue" />
<circle cx="3235.483329" cy="367.900000" r="4" stroke="black" stroke-width="2" fill="blue" />
<circle cx="604.500000" cy="912.816667" r="4" stroke="black" stroke-width="2" fill="blue" />
<circle cx="348.400000" cy="662.350000" r="4" stroke="black" stroke-width="2" fill="blue" />
<circle cx="2242.716667" cy="1155.916667" r="4" stroke="black" stroke-width="2" fill="blue" />
<circle cx="3086.896943" cy="459.113057" r="4" stroke="black" stroke-width="2" fill="blue" />
<circle cx="3149.650829" cy="495.769443" r="4" stroke="black" stroke-width="2" fill="blue" />
<circle cx="2513.857528" cy="579.898540" r="4" stroke="black" stroke-width="2" fill="blue" />
<circle cx="740.949444" cy="777.652777" r="4" stroke="black" stroke-width="2" fill="blue" />
<circle cx="2589.448017" cy="491.898329" r="4" stroke="black" stroke-width="2" fill="blue" />
<circle cx="652.646943" cy="767.469443" r="4" stroke="black" stroke-width="2" fill="blue" />
<circle cx="103.783329" cy="487.066671" r="4" stroke="black" stroke-width="2" fill="blue" />
<circle cx="1982.066671" cy="1061.666671" r="4" stroke="black" stroke-width="2" fill="blue" />
<circle cx="959.400000" cy="1300.433329" r="4" stroke="black" stroke-width="2" fill="blue" />
<circle cx="3011.190000" cy="990.314728" r="4" stroke="black" stroke-width="2" fill="blue" />
<circle cx="3113.933329" cy="434.633329" r="4" stroke="black" stroke-width="2" fill="blue" />
<circle cx="2048.352223" cy="905.897777" r="4" stroke="black" stroke-width="2" fill="blue" />
<circle cx="3193.034728" cy="502.951943" r="4" stroke="black" stroke-width="2" fill="blue" />
<circle cx="2789.150000" cy="613.600000" r="4" stroke="black" stroke-width="2" fill="blue" />
<circle cx="1751.100000" cy="857.346389" r="4" stroke="black" stroke-width="2" fill="blue" />
<circle cx="3177.487300" cy="976.820000" r="4" stroke="black" stroke-width="2" fill="blue" />
<circle cx="3441.323886" cy="448.232772" r="4" stroke="black" stroke-width="2" fill="blue" />
<circle cx="894.779167" cy="1363.154723" r="4" stroke="black" stroke-width="2" fill="blue" />
<circle cx="1774.716667" cy="859.733333" r="4" stroke="black" stroke-width="2" fill="blue" />
<circle cx="1521.000000" cy="745.550000" r="4" stroke="black" stroke-width="2" fill="blue" />
<circle cx="3060.463900" cy="1000.911600" r="4" stroke="black" stroke-width="2" fill="blue" />
<circle cx="2412.958600" cy="170.925300" r="4" stroke="black" stroke-width="2" fill="blue" />
<circle cx="101.966944" cy="484.701389" r="4" stroke="black" stroke-width="2" fill="blue" />
<circle cx="2584.400000" cy="667.983329" r="4" stroke="black" stroke-width="2" fill="blue" />
<circle cx="2197.097500" cy="177.749728" r="4" stroke="black" stroke-width="2" fill="blue" />
<circle cx="2630.116671" cy="540.366671" r="4" stroke="black" stroke-width="2" fill="blue" />
<circle cx="1992.683333" cy="1110.416667" r="4" stroke="black" stroke-width="2" fill="blue" />
<circle cx="2575.950000" cy="659.750000" r="4" stroke="black" stroke-width="2" fill="blue" />
<circle cx="344.586667" cy="527.489444" r="4" stroke="black" stroke-width="2" fill="blue" />
<circle cx="1859.650000" cy="138.666671" r="4" stroke="black" stroke-width="2" fill="blue" />
<circle cx="2086.626389" cy="469.664723" r="4" stroke="black" stroke-width="2" fill="blue" />
<circle cx="2308.004400" cy="525.153200" r="4" stroke="black" stroke-width="2" fill="blue" />
<circle cx="2084.275557" cy="428.978329" r="4" stroke="black" stroke-width="2" fill="blue" />
<circle cx="1775.582900" cy="284.050000" r="4" stroke="black" stroke-width="2" fill="blue" />
<circle cx="2986.750000" cy="947.916671" r="4" stroke="black" stroke-width="2" fill="blue" />
<circle cx="684.645000" cy="668.990833" r="4" stroke="black" stroke-width="2" fill="blue" />
<circle cx="337.570272" cy="657.623057" r="4" stroke="black" stroke-width="2" fill="blue" />
<circle cx="2555.520344" cy="467.896000" r="4" stroke="black" stroke-width="2" fill="blue" />
<circle cx="836.688879" cy="1338.308634" r="4" stroke="black" stroke-width="2" fill="blue" />
<circle cx="3257.966114" cy="818.050272" r="4" stroke="black" stroke-width="2" fill="blue" />
<circle cx="366.600000" cy="483.816667" r="4" stroke="black" stroke-width="2" fill="blue" />
<circle cx="2874.083333" cy="624.000000" r="4" stroke="black" stroke-width="2" fill="blue" />
<circle cx="2625.350000" cy="347.750000" r="4" stroke="black" stroke-width="2" fill="blue" />
<circle cx="2142.739443" cy="631.453329" r="4" stroke="black" stroke-width="2" fill="blue" />
<circle cx="2631.633329" cy="537.333329" r="4" stroke="black" stroke-width="2" fill="blue" />
<circle cx="3223.870000" cy="375.393057" r="4" stroke="black" stroke-width="2" fill="blue" />
<circle cx="3148.041910" cy="465.654098" r="4" stroke="black" stroke-width="2" fill="blue" />
<circle cx="3009.485557" cy="992.463329" r="4" stroke="black" stroke-width="2" fill="blue" />
<circle cx="2048.659167" cy="1247.548611" r="4" stroke="black" stroke-width="2" fill="blue" />
<circle cx="1452.955833" cy="799.630000" r="4" stroke="black" stroke-width="2" fill="blue" />
<circle cx="3175.979443" cy="571.201943" r="4" stroke="black" stroke-width="2" fill="blue" />
<circle cx="2545.183329" cy="620.100000" r="4" stroke="black" stroke-width="2" fill="blue" />
<circle cx="3012.316671" cy="564.416671" r="4" stroke="black" stroke-width="2" fill="blue" />
<circle cx="984.533329" cy="1126.666671" r="4" stroke="black" stroke-width="2" fill="blue" />
<circle cx="1020.159725" cy="1214.858840" r="4" stroke="black" stroke-width="2" fill="blue" />
<circle cx="2704.000000" cy="580.666671" r="4" stroke="black" stroke-width="2" fill="blue" />
<circle cx="1560.002639" cy="467.517037" r="4" stroke="black" stroke-width="2" fill="blue" />
<circle cx="1744.600000" cy="318.933329" r="4" stroke="black" stroke-width="2" fill="blue" />
<circle cx="1813.066671" cy="258.916671" r="4" stroke="black" stroke-width="2" fill="blue" />
<circle cx="1796.340000" cy="482.397500" r="4" stroke="black" stroke-width="2" fill="blue" />
<circle cx="1716.174252" cy="847.893501" r="4" stroke="black" stroke-width="2" fill="blue" />
<circle cx="3350.628086" cy="462.347028" r="4" stroke="black" stroke-width="2" fill="blue" />
<circle cx="503.511667" cy="752.039167" r="4" stroke="black" stroke-width="2" fill="blue" />
<circle cx="2343.961321" cy="581.643764" r="4" stroke="black" stroke-width="2" fill="blue" />
<circle cx="2276.536600" cy="218.614500" r="4" stroke="black" stroke-width="2" fill="blue" />
<circle cx="2579.200000" cy="195.000000" r="4" stroke="black" stroke-width="2" fill="blue" />
<circle cx="1698.157396" cy="827.644415" r="4" stroke="black" stroke-width="2" fill="blue" />
<circle cx="320.883329" cy="576.333329" r="4" stroke="black" stroke-width="2" fill="blue" />
<circle cx="2273.468886" cy="384.861386" r="4" stroke="black" stroke-width="2" fill="blue" />
<circle cx="1823.701389" cy="965.369167" r="4" stroke="black" stroke-width="2" fill="blue" />
<circle cx="1891.084728" cy="327.358057" r="4" stroke="black" stroke-width="2" fill="blue" />
<circle cx="303.333329" cy="635.483329" r="4" stroke="black" stroke-width="2" fill="blue" />
<circle cx="1796.083562" cy="755.996267" r="4" stroke="black" stroke-width="2" fill="blue" />
<circle cx="3188.751449" cy="499.604651" r="4" stroke="black" stroke-width="2" fill="blue" />
<circle cx="2263.587872" cy="184.746380" r="4" stroke="black" stroke-width="2" fill="blue" />
<circle cx="2203.676944" cy="387.645556" r="4" stroke="black" stroke-width="2" fill="blue" />
<circle cx="2598.252228" cy="498.770272" r="4" stroke="black" stroke-width="2" fill="blue" />
<circle cx="1788.583329" cy="186.333329" r="4" stroke="black" stroke-width="2" fill="blue" />
<circle cx="3193.858056" cy="596.136667" r="4" stroke="black" stroke-width="2" fill="blue" />
<circle cx="3440.807110" cy="443.358058" r="4" stroke="black" stroke-width="2" fill="blue" />
<circle cx="2141.402692" cy="295.992450" r="4" stroke="black" stroke-width="2" fill="blue" />
<circle cx="3426.782229" cy="1364.072593" r="4" stroke="black" stroke-width="2" fill="blue" />
<circle cx="2689.050000" cy="579.150000" r="4" stroke="black" stroke-width="2" fill="blue" />
<circle cx="2110.972500" cy="428.227228" r="4" stroke="black" stroke-width="2" fill="blue" />
<circle cx="2707.900000" cy="679.900000" r="4" stroke="black" stroke-width="2" fill="blue" />
<circle cx="2423.586386" cy="192.992228" r="4" stroke="black" stroke-width="2" fill="blue" />
<circle cx="1928.116667" cy="355.116667" r="4" stroke="black" stroke-width="2" fill="blue" />
<circle cx="3097.788057" cy="388.783057" r="4" stroke="black" stroke-width="2" fill="blue" />
<circle cx="2207.280833" cy="367.575000" r="4" stroke="black" stroke-width="2" fill="blue" />
<circle cx="3038.133930" cy="463.608860" r="4" stroke="black" stroke-width="2" fill="blue" />
<circle cx="2353.593073" cy="197.792829" r="4" stroke="black" stroke-width="2" fill="blue" />
<circle cx="1012.916671" cy="1207.700000" r="4" stroke="black" stroke-width="2" fill="blue" />
<circle cx="1605.178611" cy="749.186389" r="4" stroke="black" stroke-width="2" fill="blue" />
<circle cx="2664.350000" cy="608.833329" r="4" stroke="black" stroke-width="2" fill="blue" />
<circle cx="2773.033614" cy="616.340829" r="4" stroke="black" stroke-width="2" fill="blue" />
<circle cx="3145.960272" cy="485.856943" r="4" stroke="black" stroke-width="2" fill="blue" />
<circle cx="1543.764444" cy="216.670277" r="4" stroke="black" stroke-width="2" fill="blue" />
<circle cx="2960.338329" cy="584.494443" r="4" stroke="black" stroke-width="2" fill="blue" />
<circle cx="1681.333329" cy="249.166671" r="4" stroke="black" stroke-width="2" fill="blue" />
<circle cx="2604.333329" cy="651.516671" r="4" stroke="black" stroke-width="2" fill="blue" />
<circle cx="2286.393200" cy="459.678700" r="4" stroke="black" stroke-width="2" fill="blue" />
<circle cx="2203.523855" cy="276.647930" r="4" stroke="black" stroke-width="2" fill="blue" />
<circle cx="3108.733329" cy="617.066671" r="4" stroke="black" stroke-width="2" fill="blue" />
<circle cx="1060.385469" cy="1205.869444" r="4" stroke="black" stroke-width="2" fill="blue" />
<circle cx="3137.734067" cy="604.124846" r="4" stroke="black" stroke-width="2" fill="blue" />
<circle cx="2024.601163" cy="305.968858" r="4" stroke="black" stroke-width="2" fill="blue" />
<circle cx="1625.000000" cy="910.000000" r="4" stroke="black" stroke-width="2" fill="blue" />

</svg>